<svg xmlns="http://www.w3.org/2000/svg" width="21" height="23" viewBox="0 0 21 23">
    <path fill="#888" fill-rule="nonzero" d="M21 15.255V3.997c0-1.222-1-2.213-2.234-2.213h-1.313C17.453.8 16.647 0 15.653 0c-.996 0-1.802.799-1.802 1.784l-6.702.083A1.792 1.792 0 0 0 5.376.055a1.794 1.794 0 0 0-1.83 1.757H2.235C1 1.812 0 2.802 0 4.025v16.762C0 22.01 1 23 2.234 23h16.532C20 23 21 22.01 21 20.787v-5.532zM1.117 8.035h18.766v6.667h-3.882a.556.556 0 0 0-.558.553v3.817H2.513a1.39 1.39 0 0 1-1.396-1.383V8.035zm15.443 7.773h2.513L16.56 18.27v-2.462zm-1.592-13.94c0-.375.306-.679.684-.679.378 0 .684.304.684.678v.94a.681.681 0 0 1-.684.678.681.681 0 0 1-.684-.677v-.94zm-10.304 0c0-.375.306-.679.684-.679.378 0 .684.304.684.678v.94a.681.681 0 0 1-.684.678.681.681 0 0 1-.684-.677v-.94zM1.117 3.996c0-.611.5-1.106 1.117-1.106h1.313a1.792 1.792 0 0 0 1.759 1.825 1.794 1.794 0 0 0 1.843-1.742l6.702-.056c0 .986.806 1.784 1.801 1.784.995 0 1.801-.798 1.801-1.784h1.313c.617 0 1.117.496 1.117 1.107v2.904H1.117V3.997zm17.649 17.897H2.234a1.112 1.112 0 0 1-1.117-1.107v-1.051c.413.273.9.418 1.396.415h13.488a.561.561 0 0 0 .391-.166l3.491-3.402v4.204c0 .611-.5 1.107-1.117 1.107z"/>
</svg>
