<svg xmlns="http://www.w3.org/2000/svg" width="14" height="16" viewBox="0 0 14 16">
    <path fill="#ED7F81" fill-rule="evenodd" d="M13.462 2.337h-3.08a3.615 3.615 0 0 0-6.764 0H.538a.538.538 0 0 0 0 1.077h.36v11.128c0 .595.482 1.077 1.076 1.077h9.693c.594 0 1.077-.482 1.077-1.077V3.414h.718a.538.538 0 0 0 0-1.077zM7 1.081c.98 0 1.83.359 2.25 1.256h-4.5c.42-.9 1.27-1.256 2.25-1.256zm4.667 13.461H10.23V8.44a.538.538 0 1 0-1.077 0v6.102H7.359V6.286a.538.538 0 0 0-1.077 0v8.256H4.487V8.44a.538.538 0 0 0-1.077 0v6.102H1.974V3.414h9.693v11.128z"/>
</svg>
