<svg xmlns="http://www.w3.org/2000/svg" width="13" height="14" viewBox="0 0 13 14">
    <g fill="#ED7F81" fill-rule="evenodd">
        <path d="M12.846 1.052a.59.59 0 0 0-.323-.324.587.587 0 0 0-.224-.07H9.935a.59.59 0 1 0 0 1.181h.938L8.336 4.376a.59.59 0 1 0 .835.836l2.537-2.537v.937a.59.59 0 1 0 1.182 0V1.248a.587.587 0 0 0-.044-.196zM4.2 8.513l-2.735 2.734v-.938a.59.59 0 0 0-1.181 0v2.364c0 .326.264.59.59.59h2.364a.59.59 0 1 0 0-1.181h-.937l2.734-2.734a.59.59 0 0 0-.836-.835zM12.299 9.718a.59.59 0 0 0-.591.591v.74L9.17 8.514a.59.59 0 0 0-.835.835l2.734 2.734H9.935a.59.59 0 1 0 0 1.182H12.3a.59.59 0 0 0 .59-.591v-2.364a.59.59 0 0 0-.59-.59zM2.498 1.84h.74a.59.59 0 1 0 0-1.182H.875a.59.59 0 0 0-.591.59v2.364a.59.59 0 1 0 1.181 0V2.478L4.2 5.212a.59.59 0 0 0 .836-.836L2.498 1.84z"/>
    </g>
</svg>
