<svg xmlns="http://www.w3.org/2000/svg" width="16" height="16" viewBox="0 0 16 16">
    <path fill="#62AAB8" fill-rule="evenodd" d="M8.92 12.354c.399-.186.61-.536.403-.697-.12-.091-.276.06-.39.06-.244 0-.417-.04-.516-.12-.1-.08-.148-.232-.148-.454 0-.09.014-.22.044-.392.031-.172.066-.327.104-.462l.473-1.675c.045-.154.077-.323.095-.506.017-.187.026-.315.026-.387 0-.353-.124-.64-.372-.861-.246-.22-.598-.332-1.055-.332-.254 0-.524.038-.807.135-.554.194-.43.677-.308.677.25 0 .418.043.506.128.089.084.135.233.135.448 0 .119-.017.252-.045.395-.029.144-.064.297-.106.458l-.476 1.682c-.04.176-.07.334-.091.475a3.09 3.09 0 0 0-.028.413c0 .345.127.63.381.854a1.7 1.7 0 0 0 1.107.435c.298 0 .724-.11 1.069-.274m.508-6.863a.981.981 0 0 0 .331-.747.989.989 0 0 0-.33-.748 1.124 1.124 0 0 0-.797-.312c-.31 0-.577.105-.8.312a.992.992 0 0 0-.331.748c0 .292.111.542.331.747.223.205.49.308.8.308.31 0 .576-.103.796-.308M8 1.455A6.534 6.534 0 0 1 14.545 8 6.534 6.534 0 0 1 8 14.545 6.535 6.535 0 0 1 1.455 8 6.534 6.534 0 0 1 8 1.455M8 0C3.59 0 0 3.59 0 8s3.59 8 8 8 8-3.59 8-8-3.59-8-8-8"/>
</svg>
