<svg xmlns="http://www.w3.org/2000/svg" xmlns:xlink="http://www.w3.org/1999/xlink" width="186" height="177" viewBox="0 0 186 177">
    <defs>
        <path id="a" d="M16.468.16C10.442.16 5.555 5.027 5.555 11.027v33.064c0 6.02 4.882 10.87 10.923 10.87v110.807H5.555c-3.016 0-5.462 2.434-5.462 5.435 0 3.003 2.446 5.437 5.462 5.437h174.777c3.017 0 5.462-2.434 5.462-5.437 0-3.001-2.445-5.435-5.462-5.435H169.41V54.96h.012c6.024 0 10.911-4.869 10.911-10.87V11.027c0-6.018-4.88-10.867-10.911-10.867H16.468zm.01 43.926h152.93V11.031H16.478v33.055zm10.924 10.875h131.083v110.807h-10.924V100.52c0-21.028-17.11-38.048-38.232-38.048H76.558c-21.118 0-38.231 17.033-38.231 38.048v65.248H27.402V54.96zm21.848 45.56c0-15.011 12.221-27.176 27.308-27.176h32.77c15.092 0 27.31 12.155 27.31 27.175v65.248H49.25V100.52zm51.886 5.444c0 4.505 3.668 8.155 8.193 8.155 4.525 0 8.193-3.65 8.193-8.155 0-4.503-3.668-8.155-8.193-8.155-4.525 0-8.193 3.652-8.193 8.155zm-32.77 0c0 4.505 3.668 8.155 8.192 8.155s8.193-3.65 8.193-8.155c0-4.503-3.669-8.155-8.193-8.155-4.524 0-8.192 3.652-8.192 8.155zm3.336 27.046a5.42 5.42 0 0 0 0 7.69c11.731 11.675 30.752 11.675 42.482 0a5.418 5.418 0 0 0 0-7.69 5.457 5.457 0 0 0-3.861-1.592 5.457 5.457 0 0 0-3.861 1.592c-7.467 7.43-19.57 7.43-27.035 0a5.462 5.462 0 0 0-3.862-1.592 5.462 5.462 0 0 0-3.863 1.592z"/>
    </defs>
    <g fill="none" fill-rule="evenodd">
        <path fill="#4395A2" d="M14.02 47.874h159.394V5.976H14.021z"/>
        <path fill="#FEE4CF" d="M60.756 71.904L42.804 91.93v82.872h96.875V96.242l-9.285-22.181L101.3 69.44z"/>
        <g transform="translate(0 .308)">
            <mask id="b" fill="#fff">
                <use xlink:href="#a"/>
            </mask>
            <path fill="#454444" d="M-6.097 182.803h198.082V-6.002H-6.097z" mask="url(#b)"/>
        </g>
        <g fill="#EC8F7B" fill-rule="nonzero" opacity=".558" transform="translate(51 112)">
            <ellipse cx="10.494" cy="10.5" rx="10.494" ry="10.5"/>
            <ellipse cx="74.506" cy="10.5" rx="10.494" ry="10.5"/>
        </g>
        <text fill="#FFF" font-family="CallOfOpsDuty, Call Of Ops Duty" font-size="27">
            <tspan x="66.871" y="37">TKIT</tspan>
        </text>
    </g>
</svg>
