<svg xmlns="http://www.w3.org/2000/svg" width="14" height="17" viewBox="0 0 14 17">
    <g fill="#888" fill-rule="evenodd">
        <path d="M6.923 0A7.104 7.104 0 0 0 0 6.923a7.67 7.67 0 0 0 .904 3.196l.054.096c4.184 6.708 5.434 6.708 5.965 6.708.83 0 1.727-.585 3.846-3.565a55.194 55.194 0 0 0 2.104-3.146l.054-.093a7.67 7.67 0 0 0 .92-3.196A7.104 7.104 0 0 0 6.922 0zm5 9.615s-3.846 6.154-5 6.154-5-6.154-5-6.154a6.562 6.562 0 0 1-.77-2.692 5.77 5.77 0 0 1 11.54 0 6.562 6.562 0 0 1-.781 2.692h.011z"/>
        <path d="M6.923 3.462a3.077 3.077 0 1 0 0 6.153 3.077 3.077 0 0 0 0-6.153zm0 5a1.923 1.923 0 1 1 0-3.847 1.923 1.923 0 0 1 0 3.847z"/>
    </g>
</svg>
