<svg xmlns="http://www.w3.org/2000/svg" width="124" height="37" viewBox="0 0 124 37">
    <defs>
        <linearGradient id="a" x1="50%" x2="50%" y1="4.383%" y2="100%">
            <stop offset="0%" stop-color="#5BA6B5"/>
            <stop offset="100%" stop-color="#2B8090"/>
        </linearGradient>
    </defs>
    <g fill="url(#a)" fill-rule="nonzero" transform="translate(-37 -24)">
        <path d="M40.14 58.904c-.275 0-.393-.137-.472-.196a.532.532 0 0 1-.117-.49l4.571-24.938h-5.219c-.137 0-.275-.058-.333-.157a.34.34 0 0 1-.098-.353l1.236-6.73c0-.02 0-.02.02-.039.097-.294.333-.49.647-.49h21.131c.235.02.353.137.431.216.098.137.138.294.098.45l-1.236 6.73a.448.448 0 0 1-.45.354h-5.377l-4.61 25.251a.448.448 0 0 1-.452.353h-9.77v.04zM100.687 58.904c-.274 0-.392-.137-.47-.196a.532.532 0 0 1-.118-.49l4.59-24.938h-5.218c-.137 0-.275-.058-.334-.157a.34.34 0 0 1-.098-.353l1.236-6.73c0-.02 0-.02.02-.039.098-.294.333-.49.647-.49h21.131c.216.02.354.137.432.216.098.137.137.294.098.45l-1.236 6.73a.448.448 0 0 1-.451.354h-5.376l-4.61 25.251a.448.448 0 0 1-.452.353h-9.79v.04zM71.237 58.904c-.215 0-.431-.176-.45-.392l-.825-11.439-2.08 11.459a.448.448 0 0 1-.451.353h-9.83c-.137 0-.274-.06-.333-.157a.34.34 0 0 1-.098-.353l5.984-32.59a.448.448 0 0 1 .451-.353H73.318c.215.02.352.138.43.216.099.137.138.294.099.451l-1.903 10.36c.902-1.746 2.668-5.749 5.356-10.791.059-.138.216-.236.392-.236h9.222c.157 0 .314.098.373.216.059.137.098.294.02.432L79.34 42.168l2.59 16.207c.019.137-.02.235-.118.353a.414.414 0 0 1-.334.157l-10.242.02z"/>
        <path d="M92.918 60.356h-9.83c-.314 0-.647-.098-.903-.215-.215.098-.49.156-.726.156H71.257c-.961 0-1.746-.686-1.844-1.628l-.02-.432-.098.55c-.157.863-.942 1.471-1.825 1.471h-9.83c-.549 0-1.059-.216-1.412-.647a1.668 1.668 0 0 1-.393-1.472l4.317-23.524h-3.924l-4.513 24.191c-.157.844-.942 1.472-1.824 1.472h-9.752c-.608 0-1.177-.236-1.55-.687a1.96 1.96 0 0 1-.431-1.609l4.257-23.348h-3.551c-.55 0-1.06-.216-1.413-.647a1.668 1.668 0 0 1-.392-1.472l1.236-6.71c.02-.059.02-.137.04-.196a2.067 2.067 0 0 1 1.98-1.452h21.073c.098 0 .157 0 .235.02.295.039.55.117.785.235a1.992 1.992 0 0 1 1.119-.353h9.653a.88.88 0 0 1 .235.02c.55.058 1.04.333 1.374.784.333.432.45.962.353 1.491l-.06.373c.295-.569.57-1.118.864-1.668.314-.608.962-.98 1.668-.98h9.221c.432 0 .824.137 1.158.372a1.922 1.922 0 0 1 1.02-.294h9.653c.099 0 .157 0 .236.02.314.039.608.137.844.294a2.149 2.149 0 0 1 1.079-.314h21.072a.88.88 0 0 1 .235.02c.57.058 1.06.333 1.374.784.333.432.451.962.353 1.492l-1.236 6.73c-.157.843-.942 1.47-1.825 1.47h-4.14l-4.414 24.153c-.157.844-.942 1.472-1.825 1.472h-9.751c-.609 0-1.177-.236-1.55-.687-.373-.432-.53-1-.432-1.609l4.258-23.348h-3.552c-.098 0-.176 0-.274-.02l-4.434 24.27c-.099.844-.883 1.472-1.766 1.472zm-10.752-.608l.098.04c.235.156.53.215.804.215h9.83c.726 0 1.354-.51 1.491-1.197l4.513-24.584.176.04c.138.019.236.039.373.039h3.964l-4.356 23.74c-.098.49.04.962.353 1.315.314.353.785.55 1.295.55h9.751c.726 0 1.354-.511 1.491-1.198l4.474-24.407h4.493c.726 0 1.354-.51 1.491-1.197l1.236-6.73a1.412 1.412 0 0 0-.294-1.216c-.275-.354-.687-.57-1.158-.648-.059 0-.137-.02-.196-.02h-21.111c-.354 0-.707.118-1.001.314l-.098.06-.098-.06a1.597 1.597 0 0 0-.805-.294c-.059 0-.137-.02-.196-.02h-9.653c-.334 0-.667.118-.942.314l-.118.099-.117-.099a1.632 1.632 0 0 0-1.02-.372h-9.222c-.57 0-1.08.314-1.354.804-.47.883-.942 1.805-1.393 2.727l-.53 1.06.49-2.708a1.412 1.412 0 0 0-.293-1.216c-.275-.353-.687-.57-1.158-.648-.059 0-.137-.02-.196-.02h-9.653c-.354 0-.707.138-.981.354l-.099.098-.117-.059a1.893 1.893 0 0 0-.746-.275c-.059 0-.137-.02-.196-.02H40.335c-.745 0-1.412.491-1.667 1.198-.02.039-.02.117-.04.157l-1.236 6.71c-.058.431.04.863.334 1.197.294.333.706.51 1.158.51h3.963L38.49 58.04c-.098.49.04.962.353 1.315.314.353.785.55 1.295.55h9.752c.725 0 1.353-.511 1.49-1.198l4.474-24.407h4.65L56.15 58.218c-.058.431.04.843.334 1.177.294.333.706.51 1.158.51h9.83c.725 0 1.353-.51 1.49-1.197l.609-3.257.098 1.354s.137 1.746.137 1.786c.059.745.706 1.314 1.51 1.314h10.203c.216 0 .471-.04.667-.157h-.02zm.118-5.337L80.36 42.345l6.553-13.224-4.63 25.29zm-1.57-12.007l1.609 9.947 3.826-20.856-5.435 10.909z"/>
        <path d="M83.049 59.003c-.138 0-.275-.06-.334-.157a.34.34 0 0 1-.098-.354l5.945-32.589a.448.448 0 0 1 .451-.353H98.726c.215.02.352.137.431.216.098.137.137.294.098.451L93.33 58.63a.448.448 0 0 1-.452.353l-9.83.02zM131.825 58.63c-.04 0-.06-.02-.098-.04-.02-.02-.02-.058-.02-.098l.353-1.981c.02-.06-.04-.138-.118-.138H121.72c-.647 0-1.138-.157-1.49-.45-.433-.354-.55-.884-.472-1.374l3.08-17.56c.04-.295.118-.334.158-.334h11.124c.04 0 .06.02.098.04.02.019.02.058.02.097l-.687 3.924c0 .06-.059.099-.117.099h-6.24c-.059 0-.117.039-.117.098l-.49 2.825c-.02.059.038.137.117.137h5.749c.039 0 .058.02.098.04.039.02.02.058.02.098l-.687 3.904c0 .059-.06.098-.118.098h-5.847c-.059 0-.118.04-.118.098l-.686 3.983c-.02.06.039.138.117.138h7.534c.06 0 .118-.04.118-.099l2.786-15.774c0-.06.06-.098.118-.098h4.67c.039 0 .058.02.098.039.02.02.02.059.02.098l-3.905 22.132c0 .059-.059.098-.118.098H131.825z"/>
        <path d="M156.036 60.356c-.098 0-.196 0-.294-.02-1.334-.235-4.395-1.04-5.827-1.804a10.035 10.035 0 0 1-1.904-1.335c-.569.373-.961.57-1.471.864l-.216.117c-.02 0-.02.02-.04.02h-.019c-.02 0-.02.02-.04.02-.823.373-1.628.745-2.628 1.079-1.119.373-3.493.745-4.219.863-.058 0-.156.02-.215.02-.53 0-1.02-.275-1.315-.707-.02-.039-.04-.098-.059-.137a1.524 1.524 0 0 1-1.295.687h-4.67c-.47 0-.882-.196-1.196-.55a1.508 1.508 0 0 1-.334-1.275l.06-.432h-8.634c-1 0-1.805-.274-2.413-.784a2.955 2.955 0 0 1-.961-2.708l3.1-17.56c.058-.314.137-.51.235-.706.294-.49.785-.805 1.334-.805h11.105c.177 0 .334.02.51.098.295-.314.687-.47 1.119-.47h4.65c.451 0 .883.196 1.177.53.235-.158.51-.217.804-.217h10.752c.196 0 .373.04.57.118a1.552 1.552 0 0 1 1.059-.432h4.512c.471 0 .883.197 1.197.55.295.353.432.824.334 1.275l-2.649 14.931c-.137.726-.785 1.295-1.53 1.295h-2.57c.627.275 1.51.47 2.844.746.49.117.864.431 1.06.882a1.7 1.7 0 0 1 .118.903l-.51 3.59a1.514 1.514 0 0 1-1.53 1.354zm-7.966-3.61l.118.118c.569.53 1.216 1 1.923 1.373 1.393.746 4.395 1.53 5.71 1.786.058.02.156.02.215.02.57 0 1.06-.432 1.158-1.001l.51-3.59c.02-.118.059-.393-.098-.707-.157-.353-.452-.608-.824-.667-1.962-.432-2.924-.667-3.59-1.158l-.472-.333h3.885a1.16 1.16 0 0 0 1.158-.981l2.648-14.97a1.17 1.17 0 0 0-.274-.962 1.144 1.144 0 0 0-.903-.432h-4.532a1.16 1.16 0 0 0-.883.393l-.098.118-.137-.06a.972.972 0 0 0-.53-.137h-10.752c-.275 0-.51.098-.726.236l-.157.137-.118-.176c-.02-.04-.039-.06-.059-.118a1.144 1.144 0 0 0-.902-.432h-4.67c-.353 0-.686.157-.902.451l-.098.118-.138-.059c-.157-.059-.314-.117-.49-.117h-11.086c-.431 0-.804.215-1 .608-.098.157-.157.333-.197.608l-3.1 17.56c-.156.883.177 1.805.825 2.355.53.47 1.275.686 2.177.686h9.104l-.157.864c-.059.333.04.686.275.961.216.275.55.432.902.432h4.67c.55 0 1.02-.373 1.158-.903l.235-1.06.118 1.08c.02.176.098.353.176.49.216.334.57.53 1.001.53.059 0 .118 0 .157-.02.726-.117 3.06-.49 4.16-.843a25.275 25.275 0 0 0 2.59-1.06s.019 0 .019-.02h.02c.02 0 .02-.02.039-.02l.216-.117c.549-.314.941-.51 1.57-.942l.156-.039z"/>
        <path d="M139.182 58.767a.21.21 0 0 1-.117-.04c-.02-.019-.02-.038-.02-.058l.687-3.492c0-.06.039-.138.098-.138 2.02-.333 3.551-.804 4.748-1.726 1.707-1.354 2.707-2.924 2.923-4.101 0-.059.06-.098.118-.098h3.57c.04 0 .06.02.099.04.02.019.02.058.02.097-.216 1.295-.138 2.983.49 3.748.981 1.236 2.178 1.51 4.768 2.08.04 0 .059.02.059.058.02.02 0 .06 0 .118l-.51 3.63c0 .04-.04.098-.118.098h-.02c-1.471-.275-4.238-1.02-5.415-1.668a7.865 7.865 0 0 1-2.315-1.844c-.04-.04-.118-.04-.157-.02-1.158.805-1.55 1-2.296 1.413l-.216.118h-.02c-.823.372-1.569.706-2.49 1.02-.805.275-2.885.628-3.886.765zm12.93-7.318c-.04 0-.059-.02-.098-.04-.02-.02-.02-.058-.02-.098l2.649-14.97c0-.059.059-.098.118-.098h4.532c.04 0 .059.02.098.04.02.019.02.058.02.097l-2.649 14.97c0 .06-.059.099-.118.099h-4.532zm-12.263-.393c-.02 0-.039 0-.058-.02l-.04-.039v-.039l.687-3.414v-.02c0-.058.04-.117.118-.117 1.197-.157 1.49-.196 2.59-.628.98-.353 1.726-1.216 2.197-1.746.059-.059.02-.177-.098-.177h-4.199c-.039 0-.059-.02-.098-.039-.04-.02-.02-.059-.02-.098l.471-2.492c0-.059.06-.098.118-.098h5.396c.039 0 .098-.02.117-.059.157-.314.471-1.314.55-1.667.02-.06-.04-.138-.118-.138h-5.65c-.04 0-.06-.02-.099-.04-.02-.019-.02-.058-.02-.097l.609-3.414c0-.059.059-.098.118-.098h10.752c.039 0 .058.02.098.04.02.019.02.058.02.097l-.177.981c-.53 3.041-1.315 4.905-1.727 5.788-.745 1.55-2.55 3.865-4.002 4.886-2.002 1.373-4.513 2.295-7.535 2.648z"/>
    </g>
</svg>
