<svg xmlns="http://www.w3.org/2000/svg" width="17" height="12" viewBox="0 0 17 12">
    <g fill="#ED7F81" fill-rule="evenodd">
        <path d="M15.604 5.015h-1.07a.529.529 0 0 0-.536.522c0 .289.24.522.535.522h1.07a.529.529 0 0 0 .536-.522.529.529 0 0 0-.535-.522zM15.543 8.062l-1.07-.697a.544.544 0 0 0-.743.147.515.515 0 0 0 .15.724l1.07.696c.247.16.58.095.743-.146a.515.515 0 0 0-.15-.724zM14.166 3.771c.1 0 .2-.027.285-.08l1.106-.696a.52.52 0 0 0 .26-.466.522.522 0 0 0-.291-.448.547.547 0 0 0-.543.033l-1.107.696a.516.516 0 0 0-.229.59.534.534 0 0 0 .519.375v-.004zM12.035.14h-1.428c-.591 0-1.07.467-1.07 1.044v.031L3.404 3.622a1.07 1.07 0 0 0-1.007-.697h-1.07c-.592 0-1.071.468-1.071 1.045v3.482c0 .577.48 1.045 1.07 1.045h1.071a1.07 1.07 0 0 0 1.003-.696l.66.282a.505.505 0 0 0-.057.23 2.403 2.403 0 0 0 1.367 2.207c.315.153.662.232 1.014.23a2.667 2.667 0 0 0 1.72-.65.515.515 0 0 0 .15-.22l1.303.56c.102.487.54.836 1.05.836h1.427c.591 0 1.07-.468 1.07-1.045V1.177A1.058 1.058 0 0 0 12.036.14zM2.398 7.451h-1.07V3.97h1.07v3.482zm7.138 1.916L3.47 6.728V4.705l6.067-2.4v7.063zm-3.686.23a1.338 1.338 0 0 1-.76-1.066l2.14.916a1.42 1.42 0 0 1-1.38.15zm6.185.64h-1.428V1.184h1.428v9.054z"/>
    </g>
</svg>
