<svg xmlns="http://www.w3.org/2000/svg" width="73" height="73" viewBox="0 0 73 73">
    <defs>
        <filter id="a" width="132.9%" height="132.9%" x="-16.4%" y="-16.4%" filterUnits="objectBoundingBox">
            <feOffset dy="2" in="SourceAlpha" result="shadowOffsetOuter1"/>
            <feGaussianBlur in="shadowOffsetOuter1" result="shadowBlurOuter1" stdDeviation="2"/>
            <feColorMatrix in="shadowBlurOuter1" result="shadowMatrixOuter1" values="0 0 0 0 0.65369898 0 0 0 0 0.65369898 0 0 0 0 0.65369898 0 0 0 0.5 0"/>
            <feMerge>
                <feMergeNode in="shadowMatrixOuter1"/>
                <feMergeNode in="SourceGraphic"/>
            </feMerge>
        </filter>
    </defs>
    <g fill="none" fill-rule="evenodd" filter="url(#a)">
        <circle cx="36.5" cy="34.5" r="32.5" fill="#62AAB8" fill-rule="nonzero"/>
        <g fill="#FFF">
            <path d="M36.992 37.652c4.877 0 8.85-4.902 8.85-10.932 0-6.031-3.973-10.932-8.85-10.932-4.876 0-8.85 4.901-8.85 10.932 0 6.03 3.983 10.932 8.85 10.932zm0-19.131c3.425 0 6.195 3.644 6.195 8.199s-2.77 8.199-6.195 8.199c-3.424 0-6.194-3.644-6.194-8.2 0-4.554 2.77-8.198 6.194-8.198z"/>
            <path d="M45.125 37.658a1.345 1.345 0 0 0-1.467 1.219 1.355 1.355 0 0 0 1.2 1.489c4.135.493 7.338 3.905 7.626 8.122H21.5c.315-4.205 3.505-7.602 7.626-8.122a1.355 1.355 0 0 0 1.2-1.49 1.345 1.345 0 0 0-1.467-1.218c-.098 0-10.087 1.156-10.087 12.174 0 .748.597 1.354 1.333 1.354h33.773c.736 0 1.333-.606 1.333-1.354 0-11.018-9.99-12.174-10.087-12.174z"/>
        </g>
    </g>
</svg>
