<svg xmlns="http://www.w3.org/2000/svg" width="18" height="18" viewBox="0 0 18 18">
    <g fill="none" fill-rule="evenodd">
        <circle cx="9" cy="9" r="9" fill="#62AAB8" fill-rule="nonzero"/>
        <g fill="#FFF" transform="translate(5.143 3.429)">
            <path d="M3.737.386C.857.386.094 2.49.094 3.6a.643.643 0 1 0 1.286 0c0-.197.064-1.929 2.357-1.929 2.182 0 2.357 1.209 2.357 2.786 0 .244-.6.63-1.041.909-.857.557-1.959 1.247-1.959 2.52a.643.643 0 0 0 1.286 0c0-.527.54-.909 1.363-1.436.823-.527 1.637-1.041 1.637-1.993 0-1.217 0-4.071-3.643-4.071z"/>
            <circle cx="3.523" cy="10.671" r="1"/>
        </g>
    </g>
</svg>
