<svg xmlns="http://www.w3.org/2000/svg" width="33" height="33" viewBox="0 0 33 33">
  <path fill="#6C6C6C" d="M16.5,0 C7.387875,0 0,7.387875 0,16.5 C0,25.612125 7.387875,33 16.5,33 C25.612125,33 33,25.612125 33,16.5 C33,7.387875 25.612125,0 16.5,0 Z M20.625,11 L18.76875,11 C18.029,11 17.875,11.303875 17.875,12.06975 L17.875,13.75 L20.625,13.75 L20.337625,16.5 L17.875,16.5 L17.875,26.125 L13.75,26.125 L13.75,16.5 L11,16.5 L11,13.75 L13.75,13.75 L13.75,10.5765 C13.75,8.144125 15.030125,6.875 17.914875,6.875 L20.625,6.875 L20.625,11 Z"/>
</svg>
