<svg xmlns="http://www.w3.org/2000/svg" width="33" height="33" viewBox="0 0 33 33">
  <path fill="#6C6C6C" d="M20.389875,8.66525 C19.375125,8.6185 19.069875,8.61025 16.5,8.61025 C13.930125,8.61025 13.62625,8.619875 12.6115,8.66525 C10.000375,8.784875 8.784875,10.021 8.66525,12.6115 C8.619875,13.62625 8.608875,13.930125 8.608875,16.5 C8.608875,19.069875 8.619875,19.37375 8.66525,20.389875 C8.784875,22.9735 9.994875,24.2165 12.6115,24.336125 C13.624875,24.3815 13.930125,24.3925 16.5,24.3925 C19.07125,24.3925 19.375125,24.382875 20.389875,24.336125 C23.001,24.217875 24.215125,22.977625 24.336125,20.389875 C24.3815,19.375125 24.391125,19.069875 24.391125,16.5 C24.391125,13.930125 24.3815,13.62625 24.336125,12.6115 C24.215125,10.022375 22.99825,8.784875 20.389875,8.66525 Z M16.5,21.443125 C13.770625,21.443125 11.556875,19.23075 11.556875,16.5 C11.556875,13.770625 13.770625,11.55825 16.5,11.55825 C19.229375,11.55825 21.443125,13.770625 21.443125,16.5 C21.443125,19.229375 19.229375,21.443125 16.5,21.443125 Z M21.638375,12.518 C21.000375,12.518 20.483375,12.001 20.483375,11.363 C20.483375,10.725 21.000375,10.208 21.638375,10.208 C22.276375,10.208 22.793375,10.725 22.793375,11.363 C22.793375,11.999625 22.276375,12.518 21.638375,12.518 Z M19.707875,16.5 C19.707875,18.272375 18.271,19.707875 16.5,19.707875 C14.729,19.707875 13.292125,18.272375 13.292125,16.5 C13.292125,14.727625 14.729,13.292125 16.5,13.292125 C18.271,13.292125 19.707875,14.727625 19.707875,16.5 Z M16.5,0 C7.387875,0 0,7.387875 0,16.5 C0,25.612125 7.387875,33 16.5,33 C25.612125,33 33,25.612125 33,16.5 C33,7.387875 25.612125,0 16.5,0 Z M26.06725,20.46825 C25.909125,23.967625 23.96075,25.906375 20.469625,26.06725 C19.4425,26.114 19.113875,26.125 16.5,26.125 C13.886125,26.125 13.558875,26.114 12.53175,26.06725 C9.03375,25.906375 7.093625,23.964875 6.93275,20.46825 C6.886,19.4425 6.875,19.113875 6.875,16.5 C6.875,13.886125 6.886,13.558875 6.93275,12.53175 C7.093625,9.03375 9.035125,7.093625 12.53175,6.934125 C13.558875,6.886 13.886125,6.875 16.5,6.875 C19.113875,6.875 19.4425,6.886 20.469625,6.934125 C23.969,7.095 25.9105,9.040625 26.06725,12.53175 C26.114,13.558875 26.125,13.886125 26.125,16.5 C26.125,19.113875 26.114,19.4425 26.06725,20.46825 Z"/>
</svg>
