<svg xmlns="http://www.w3.org/2000/svg" width="11" height="11" viewBox="0 0 11 11">
    <g fill="#ED7F81" fill-rule="evenodd">
        <path d="M7.89 5.27H6.265a.8.8 0 0 0-.765-.572.8.8 0 0 0-.377.098l-1.555-1.56a.23.23 0 1 0-.325.324l1.554 1.559a.8.8 0 0 0-.1.381.8.8 0 0 0 .574.765v2.214a.229.229 0 1 0 .458 0V6.265a.8.8 0 0 0 .536-.536H7.89a.229.229 0 1 0 0-.459z"/>
        <path fill-rule="nonzero" d="M5.5 0A5.506 5.506 0 0 0 0 5.5C0 8.532 2.468 11 5.5 11 8.534 11 11 8.532 11 5.5 11 2.466 8.534 0 5.5 0zm3.8 8.06c-.12.178-.256.343-.399.502l-.484-.47a.23.23 0 1 0-.324.324l.485.47a4.559 4.559 0 0 1-2.848 1.185v-.676a.229.229 0 1 0-.459 0v.676A4.559 4.559 0 0 1 2.41 8.873l.499-.456a.23.23 0 1 0-.324-.324l-.497.454A4.558 4.558 0 0 1 .929 5.73h.676a.229.229 0 1 0 0-.458H.929c.054-1.091.49-2.08 1.178-2.841l.477.477a.228.228 0 0 0 .324 0 .23.23 0 0 0 0-.324l-.477-.477A4.547 4.547 0 0 1 5.27.928v.676a.229.229 0 1 0 .459 0V.928c1.09.055 2.08.49 2.84 1.178l-.477.477a.23.23 0 1 0 .324.324l.477-.477a4.558 4.558 0 0 1 1.178 2.84h-.676a.229.229 0 1 0 0 .459h.676A4.555 4.555 0 0 1 9.3 8.06z"/>
    </g>
</svg>
