<svg xmlns="http://www.w3.org/2000/svg" xmlns:xlink="http://www.w3.org/1999/xlink" width="377" height="90" viewBox="0 0 377 90">
    <defs>
        <path id="a" d="M0 .12h120.874v82.644H0z"/>
        <path id="c" d="M.359.019h279.574v89.107H.359z"/>
    </defs>
    <g fill="none" fill-rule="evenodd" opacity=".074">
        <g transform="translate(0 7)">
            <mask id="b" fill="#fff">
                <use xlink:href="#a"/>
            </mask>
            <path fill="#231916" d="M75.09 30.935c6.12-9.564 5.65-8.618 10.593-16.056l.117-.237A642.353 642.353 0 0 0 92.626 4.49c-1.765-3.187-4.001-4.25-6.002-4.25-3.884 0-6.238 1.063-15.654 14.64C59.672 24.44 40.958 52.658 14.241 66.47c1.648-4.132 4.002-9.209 6.944-14.521 1.883-3.542 4.12-7.32 6.944-10.862l6.12-9.681h-.117c5.767-9.799 5.296-8.973 10.357-16.174l.236-.354c3.06-4.605 6.708-10.154 6.708-10.154-1.883-3.187-4.001-4.25-6.002-4.25-1.884 0-3.65.944-5.061 1.889C35.426 4.253 13.3 41.442 13.3 41.442 6.002 53.484 0 67.652 0 70.84c0 5.667 5.414 11.453 10.946 11.453v.117s8.71-1.888 36.603-29.633c-4.12 7.91-7.18 15.113-7.18 17.237 0 6.73 7.65 12.75 12.83 12.75 1.53 0 3.06-.354 4.354-.944 6.12-.826 40.488-36.599 40.488-36.599 11.298-11.334 21.89-25.856 22.597-29.397.118-.708.236-1.535.236-2.362 0-5.785-4.002-12.16-9.651-13.34a27.743 27.743 0 0 1-4.214 11.71c-3.107 4.834-8.202 12.107-14.97 19.576-3.179 3.423-6.71 6.966-10.594 10.39l-9.297 9.09v.119c-9.063 9.326-8.592 8.263-15.772 15.465l-.353.236c-.823.827-1.765 1.653-2.707 2.48 2.825-6.966 7.768-17.945 15.536-28.572l6.238-9.68z" mask="url(#b)"/>
        </g>
        <g transform="translate(97)">
            <mask id="d" fill="#fff">
                <use xlink:href="#c"/>
            </mask>
            <path fill="#231916" d="M137.875 39.429c-1.684 5.577-7.317 15.198-14.597 26.472-4.719 2.37-8.848 4.384-11.443 6.162 1.298-2.725 2.831-6.043 4.719-9.953 4.32-9.223 11.96-17.948 16.002-22.102a4.193 4.193 0 0 1 5.319-.58zm-27.927 42.469a.898.898 0 0 1-.59-.237c-.236-.237-.472-.71-.472-1.185 0-.948.354-2.132.944-3.673h.472c2.005 0 5.426-1.185 6.606-1.66-3.068 4.03-5.662 6.755-6.96 6.755zM34.952 39.874a12.683 12.683 0 0 1 4.325-2.847c.745-.296 1.527.33 1.415 1.127-.014.106-.03.21-.047.313-.287 1.788-.969 3.485-1.93 5.017C36.281 47.36 30.217 55.558 22.3 55.83c4.315-6.836 9.632-12.912 12.652-15.955zm221.86-2.411l.015-.004c1.67-.413 3.18 1.13 2.724 2.796-.128.466-.26.878-.38 1.236 0 0-7.195 13.983-17.576 14.338 6.134-9.716 14.51-18.248 15.217-18.366zm-24.39 43.68c-.741.552-1.793.023-1.797-.904 0-2.607 2.83-8.057 7.313-17.537 23.003-5.095 26.896-19.67 27.014-19.551.943-2.015 1.297-3.674 1.297-5.096 0-6.161-7.196-7.939-7.314-7.939a12.543 12.543 0 0 0-2.949-.355c-7.336 0-15.029 6.52-22.967 18.606-3.661 2.618-12.309 10.314-29.055 32.464 2.006-6.516 9.673-27.964 24.655-44.316 0-.119.117-4.977-7.432-6.873h-.472c-2.123 0-5.072 2.725-8.375 6.991-5.898 3.91-17.223 14.575-36.215 43.725l-.944 1.895c1.77-5.569 9.437-28.438 25.363-45.738 0-.119.117-4.977-7.668-6.873-.236 0-.354-.118-.59-.118-2.123 0-5.072 2.843-8.257 6.99-5.78 3.911-16.869 14.22-35.271 42.303 3.067-8.65 10.617-27.49 24.182-42.302 0-.119.118-4.977-7.55-6.873h-.59c-3.598 0-9.505 7.857-15.025 17.201-4.817 5.86-11.15 10.355-17.297 14.082 3.421-5.333 5.899-9.48 6.37-10.428l1.534-2.37c2.949-4.147 4.129-7.346 4.129-9.835 0-6.043-6.252-7.82-7.314-8.057a12.543 12.543 0 0 0-2.95-.356c-6.036 0-12.42 4.53-18.989 13.033-4.173 3.281-12.736 11.489-28.077 31.758 0 0-.118.237-.354.593l-2.97 3.785a1.18 1.18 0 0 1-.224.22l-2.74 2.041c-.764.57-1.847.025-1.851-.93v-.021c0-2.726 2.948-8.532 7.667-18.485 5.662-12.087 17.93-24.41 18.638-24.647l.015-.004c1.472-.36 2.742 1.1 2.216 2.527-1.16 3.154-2.82 7.777-2.82 9.563 0 .474.117.83.353.83s4.364-2.252 8.14-10.665c.943-2.014 1.18-3.2 1.297-3.91 0-2.488-5.073-5.095-6.488-5.451-1.298-.355-2.241-.592-3.539-.592-6.87 0-14.052 5.72-21.5 16.461-2.015 1.05-10.418 6.615-30.876 33.543 2.123-6.754 8.022-21.684 17.812-35.311l6.724-10.546c6.016-10.665 5.898-9.48 11.206-17.656l.119-.237c3.42-5.095 7.313-11.138 7.313-11.138C93.314 1.204 91.073.019 88.831.019c-2.005 0-4.01.948-5.426 2.014-5.426 2.015-29.49 42.539-29.49 42.539-.338.563-.67 1.13-1.002 1.697-5.305 3.256-14.885 10.33-31.085 25.676 0 0-.708.948-1.652 1.895l-2.02 2.482a28.39 28.39 0 0 1-5.049 4.836c-.733.546-1.774.023-1.778-.894v-.025c0-2.607 2.831-8.057 7.314-17.537 23.002-5.095 26.895-19.67 27.013-19.551.944-2.015 1.298-3.674 1.298-5.096 0-6.161-7.196-7.939-7.314-7.939a12.543 12.543 0 0 0-2.949-.355c-9.437 0-19.463 10.783-29.844 30.335-4.6 8.65-6.488 15.167-6.488 19.788 0 6.28 3.539 9.123 8.139 9.123 4.254 0 6.135-.274 12.624-8.32a66.605 66.605 0 0 1 6.201-6.686c5.075-4.774 11.757-11.68 19.798-17.011-4.542 9.09-7.598 17.032-7.598 19.576 0 4.194 2.99 8.742 6.767 10.974 1.022.604 2.22.835 3.397.708a5.636 5.636 0 0 0 3.432-1.665c4.57-4.68 11.143-15.84 20.561-24.794-3.962 7.812-5.61 13.78-5.61 18.095 0 6.398 3.54 9.242 8.14 9.242 4.129 0 7.196-.236 14.392-10.546 3.268-3.952 7.44-10.181 12.734-16.287-3.805 7.621-5.302 13.467-5.302 17.709 0 6.28 3.42 9.124 8.02 9.124 6.135 0 9.438-3.08 20.408-18.959 6.521-3.552 11.676-6.591 15.747-9.162-3.586 7.416-6.073 13.772-6.073 15.798 0 5.559 4.609 11.022 10.015 12.037a1.322 1.322 0 0 0 1.545-1.491c3.893-3.674 13.212-18.84 24.418-31.164-4.954 9.36-8.492 18.13-8.492 20.618 0 5.656 5.166 11.416 10.664 12.13a.901.901 0 0 0 1.014-.992c3.303-2.015 13.094-18.485 25.126-31.638-4.719 9.124-8.258 17.656-8.258 20.026 0 4.74 4.011 9.953 8.611 11.612a7.107 7.107 0 0 0 5.877-2.355c4.146-4.686 9.78-13.716 17.484-21.495-3.148 6.692-4.486 11.913-4.486 15.793 0 6.28 3.539 9.123 8.14 9.123 4.836 0 6.606-.355 15.57-12.086 7.55-6.28 20.172-21.684 36.569-26.424l-2.005-6.991s-7.786.948-36.805 28.439c0 0-.707.948-1.651 1.895l-4.247 5.214-2.803 2.09z" mask="url(#d)"/>
        </g>
    </g>
</svg>
